<svg width="58" height="58" viewBox="0 0 58 58" fill="none" xmlns="http://www.w3.org/2000/svg">
<path d="M28.9999 8.20972C33.4083 8.2058 37.7026 9.61087 41.256 12.2199L12.2198 41.2561C9.95266 38.1583 8.58816 34.4928 8.27771 30.6665C7.96727 26.8403 8.72301 23.0028 10.4611 19.58C12.1992 16.1571 14.8516 13.2828 18.1241 11.2759C21.3965 9.26894 25.1611 8.20796 28.9999 8.21063V8.20972ZM28.9999 49.7912C24.5917 49.7948 20.2977 48.3894 16.7447 45.7801L45.78 16.7439C48.0473 19.8418 49.412 23.5074 49.7225 27.3338C50.0331 31.1603 49.2774 34.9979 47.5393 38.421C45.8012 41.844 43.1487 44.7185 39.8762 46.7256C36.6036 48.7327 32.8389 49.7938 28.9999 49.7912Z" fill="white"/>
<path opacity="0.15" d="M45.7801 16.744L42.1551 20.369C44.8257 24.0124 46.233 28.4286 46.1628 32.9455C46.0926 37.4624 44.5488 41.8327 41.7663 45.3914C46.0334 42.0788 48.8401 37.2324 49.5896 31.8826C50.3392 26.5329 48.9725 21.1018 45.7801 16.744ZM25.3749 11.8348C29.7833 11.8309 34.0776 13.236 37.6311 15.845L41.2561 12.22C36.8984 9.0275 31.4673 7.66082 26.1176 8.41056C20.7679 9.16029 15.9217 11.9673 12.6095 16.2347C16.2523 13.3806 20.7472 11.831 25.3749 11.8339V11.8348Z" fill="#000028"/>
<path d="M29 1.8125C23.6228 1.8125 18.3663 3.40702 13.8954 6.39442C9.42442 9.38182 5.93973 13.6279 3.88198 18.5958C1.82422 23.5637 1.28582 29.0302 2.33485 34.304C3.38389 39.5779 5.97325 44.4222 9.77549 48.2245C13.5777 52.0267 18.4221 54.6161 23.6959 55.6651C28.9698 56.7141 34.4363 56.1757 39.4042 54.118C44.372 52.0602 48.6181 48.5755 51.6055 44.1046C54.5929 39.6336 56.1875 34.3772 56.1875 29C56.1793 21.7919 53.3123 14.8814 48.2154 9.78454C43.1185 4.68766 36.208 1.82066 29 1.8125ZM29 8.20972C33.4083 8.2058 37.7026 9.61087 41.2561 12.2199L12.2198 41.2561C9.95269 38.1582 8.58819 34.4928 8.27774 30.6665C7.96729 26.8403 8.72304 23.0028 10.4611 19.5799C12.1992 16.1571 14.8516 13.2828 18.1241 11.2758C21.3966 9.26893 25.1611 8.20795 29 8.21063V8.20972ZM29 49.7912C24.5917 49.7948 20.2978 48.3894 16.7447 45.7801L45.7801 16.7439C48.0474 19.8418 49.412 23.5074 49.7226 27.3338C50.0331 31.1603 49.2774 34.9979 47.5393 38.421C45.8013 41.844 43.1488 44.7185 39.8762 46.7256C36.6036 48.7327 32.839 49.7938 29 49.7912Z" fill="#FF6666"/>
<path d="M29 1.8125C23.6228 1.8125 18.3663 3.40702 13.8954 6.39442C9.42442 9.38182 5.93973 13.6279 3.88198 18.5958C1.82422 23.5637 1.28582 29.0302 2.33485 34.304C3.38389 39.5779 5.97325 44.4222 9.77549 48.2245C13.5777 52.0267 18.4221 54.6161 23.6959 55.6651C28.9698 56.7141 34.4363 56.1757 39.4042 54.118C44.372 52.0602 48.6181 48.5755 51.6055 44.1046C54.5929 39.6336 56.1875 34.3772 56.1875 29C56.1793 21.7919 53.3123 14.8814 48.2154 9.78454C43.1185 4.68766 36.208 1.82066 29 1.8125V1.8125ZM29 8.20972C33.4083 8.2058 37.7026 9.61087 41.2561 12.2199L12.2198 41.2561C9.95269 38.1582 8.58819 34.4928 8.27774 30.6665C7.96729 26.8403 8.72304 23.0028 10.4611 19.5799C12.1992 16.1571 14.8516 13.2828 18.1241 11.2758C21.3966 9.26893 25.1611 8.20795 29 8.21063V8.20972ZM29 49.7912C24.5917 49.7948 20.2978 48.3894 16.7447 45.7801L45.7801 16.7439C48.0474 19.8418 49.412 23.5074 49.7226 27.3338C50.0331 31.1603 49.2774 34.9979 47.5393 38.421C45.8013 41.844 43.1488 44.7185 39.8762 46.7256C36.6036 48.7327 32.839 49.7938 29 49.7912V49.7912Z" stroke="#2E4369" stroke-linecap="round" stroke-linejoin="round"/>
</svg>
