<svg width="58" height="58" viewBox="0 0 58 58" fill="none" xmlns="http://www.w3.org/2000/svg">
<g clip-path="url(#clip0)">
<path d="M29 56.1875C44.0152 56.1875 56.1875 44.0152 56.1875 29C56.1875 13.9848 44.0152 1.8125 29 1.8125C13.9848 1.8125 1.8125 13.9848 1.8125 29C1.8125 44.0152 13.9848 56.1875 29 56.1875Z" fill="#5ADE9C"/>
<path opacity="0.15" d="M32.6257 52.5626C27.4669 52.5625 22.4147 51.0947 18.059 48.3306C13.7032 45.5666 10.2238 41.6203 8.02696 36.9527C5.83014 32.2851 5.00663 27.0888 5.65259 21.9707C6.29856 16.8526 8.38733 12.0239 11.675 8.04846C8.75706 10.4614 6.37534 13.4573 4.68238 16.8442C2.98943 20.231 2.02259 23.9341 1.8438 27.7163C1.66501 31.4985 2.27822 35.2763 3.64413 38.8077C5.01004 42.3392 7.09854 45.5464 9.77583 48.2239C12.4531 50.9013 15.6602 52.9901 19.1915 54.3562C22.7229 55.7224 26.5006 56.3359 30.2828 56.1573C34.065 55.9788 37.7682 55.0122 41.1552 53.3195C44.5421 51.6268 47.5382 49.2453 49.9514 46.3276C45.0817 50.3658 38.9519 52.5717 32.6257 52.5626Z" fill="#000028"/>
<path d="M48.2252 48.2245C58.8425 37.6071 58.8425 20.3929 48.2252 9.77553C37.6078 -0.841844 20.3936 -0.841846 9.77622 9.77553C-0.841155 20.3929 -0.841155 37.6071 9.77622 48.2245C20.3936 58.8418 37.6078 58.8418 48.2252 48.2245Z" stroke="#2E4369" stroke-linecap="round" stroke-linejoin="round"/>
<path d="M19.0293 29.0137L27.1783 37.1627L41.6883 22.6527" stroke="#2E4369" stroke-linecap="round" stroke-linejoin="round"/>
</g>
<defs>
<clipPath id="clip0">
<rect width="58" height="58" fill="white"/>
</clipPath>
</defs>
</svg>
