<svg width="20" height="20" viewBox="0 0 20 20" fill="none" xmlns="http://www.w3.org/2000/svg">
<path d="M11.092 5.04612L10.26 4.30731V5.41999V12.08C10.26 12.2239 10.1439 12.34 10 12.34C9.87344 12.34 9.76 12.2415 9.76 12.08V5.41999V4.31316L8.92949 5.04481L6.40949 7.26481L6.4041 7.26956L6.39884 7.27447C6.29893 7.36771 6.15552 7.34772 6.08806 7.2647L6.07724 7.25138L6.06553 7.23883C5.97914 7.14627 5.98081 6.99117 6.08926 6.89628L6.08926 6.89629L6.09194 6.89392L9.83194 3.57391L9.83202 3.57401L9.84023 3.56638C9.90755 3.50387 10.0115 3.48126 10.1131 3.52515L10.1681 3.57391L13.9081 6.89392L13.9081 6.89393L13.9108 6.89628C14.0204 6.99223 14.0244 7.1566 13.9429 7.25167C13.8479 7.3592 13.6935 7.36061 13.6012 7.27447L13.6013 7.27435L13.592 7.26612L11.092 5.04612ZM4.34 15.16V15.66H4.84H15.16H15.66V15.16V14.08C15.66 13.9534 15.7585 13.84 15.92 13.84C16.0639 13.84 16.16 13.9361 16.16 14.08V15.92C16.16 16.0527 16.0551 16.16 15.92 16.16H4.08C3.95614 16.16 3.84 16.0439 3.84 15.92V14.08C3.84 13.9449 3.94729 13.84 4.08 13.84C4.24148 13.84 4.34 13.9534 4.34 14.08V15.16Z" fill="#9CA3AF" stroke="#9CA3AF"/>
</svg>
