<svg width="21" height="21" viewBox="0 0 21 21" fill="none" xmlns="http://www.w3.org/2000/svg">
<path d="M17.9111 7.87495C18.0842 7.87495 18.2534 7.82363 18.3973 7.72748C18.5411 7.63134 18.6533 7.49468 18.7195 7.33479C18.7857 7.17491 18.8031 6.99898 18.7693 6.82924C18.7356 6.65951 18.6522 6.5036 18.5298 6.38123C18.4075 6.25886 18.2516 6.17552 18.0818 6.14176C17.9121 6.108 17.7362 6.12532 17.5763 6.19155C17.4164 6.25778 17.2797 6.36993 17.1836 6.51382C17.0874 6.65771 17.0361 6.82689 17.0361 6.99995C17.0361 7.23201 17.1283 7.45457 17.2924 7.61866C17.4565 7.78276 17.6791 7.87495 17.9111 7.87495ZM15.2861 7.87495C15.4592 7.87495 15.6284 7.82363 15.7723 7.72748C15.9161 7.63134 16.0283 7.49468 16.0945 7.33479C16.1607 7.17491 16.1781 6.99898 16.1443 6.82924C16.1106 6.65951 16.0272 6.5036 15.9048 6.38123C15.7825 6.25886 15.6266 6.17552 15.4568 6.14176C15.2871 6.108 15.1112 6.12532 14.9513 6.19155C14.7914 6.25778 14.6547 6.36993 14.5586 6.51382C14.4624 6.65771 14.4111 6.82689 14.4111 6.99995C14.4111 7.23201 14.5033 7.45457 14.6674 7.61866C14.8315 7.78276 15.0541 7.87495 15.2861 7.87495ZM12.6611 7.87495C12.8342 7.87495 13.0034 7.82363 13.1473 7.72748C13.2911 7.63134 13.4033 7.49468 13.4695 7.33479C13.5357 7.17491 13.5531 6.99898 13.5193 6.82924C13.4856 6.65951 13.4022 6.5036 13.2798 6.38123C13.1575 6.25886 13.0016 6.17552 12.8318 6.14176C12.6621 6.108 12.4862 6.12532 12.3263 6.19155C12.1664 6.25778 12.0297 6.36993 11.9336 6.51382C11.8374 6.65771 11.7861 6.82689 11.7861 6.99995C11.7861 7.11485 11.8088 7.22863 11.8527 7.33479C11.8967 7.44095 11.9612 7.53741 12.0424 7.61866C12.1237 7.69992 12.2201 7.76437 12.3263 7.80834C12.4324 7.85231 12.5462 7.87495 12.6611 7.87495ZM16.5461 11.3749C16.3536 11.3749 16.1524 11.3137 15.9599 11.2699C15.5701 11.184 15.187 11.07 14.8136 10.9287C14.4077 10.781 13.9615 10.7887 13.5609 10.9502C13.1603 11.1118 12.8336 11.4158 12.6436 11.8037L12.4511 12.1974C11.5976 11.7213 10.8118 11.1327 10.1149 10.4474C9.43297 9.75088 8.84469 8.96847 8.36488 8.11995L8.74988 7.87495C9.13782 7.685 9.44181 7.35828 9.60335 6.95768C9.76488 6.55707 9.77255 6.11087 9.62488 5.70495C9.48595 5.33082 9.37195 4.94789 9.28363 4.5587C9.23988 4.35745 9.20488 4.16495 9.17863 3.9637C9.07237 3.34736 8.74955 2.78922 8.2683 2.38978C7.78704 1.99034 7.17899 1.77585 6.55363 1.78495H3.92863C3.55872 1.78446 3.19288 1.86216 2.8551 2.01296C2.51733 2.16375 2.21523 2.38423 1.96863 2.65995C1.7181 2.94213 1.53137 3.27501 1.42114 3.6359C1.31091 3.99678 1.27978 4.37719 1.32988 4.7512C1.79075 8.41486 3.45821 11.8208 6.06923 14.4318C8.68024 17.0429 12.0862 18.7103 15.7499 19.1712C15.8635 19.1799 15.9775 19.1799 16.0911 19.1712C16.7873 19.1712 17.455 18.8946 17.9473 18.4024C18.4396 17.9101 18.7161 17.2424 18.7161 16.5462V13.9212C18.707 13.3106 18.4854 12.7223 18.0893 12.2576C17.6932 11.7928 17.1475 11.4807 16.5461 11.3749ZM16.9749 16.6249C16.9763 16.7518 16.9502 16.8774 16.8982 16.9931C16.8463 17.1089 16.7698 17.2119 16.6741 17.2951C16.5784 17.3784 16.4657 17.4398 16.3439 17.4752C16.2221 17.5105 16.094 17.519 15.9686 17.4999C12.7015 17.0736 9.66609 15.582 7.33238 13.2562C5.0005 10.9067 3.51146 7.8517 3.09738 4.56745C3.07837 4.43911 3.08813 4.30816 3.12597 4.18407C3.1638 4.05997 3.22875 3.94585 3.31613 3.84995C3.39714 3.75771 3.49667 3.68355 3.60822 3.6323C3.71978 3.58104 3.84087 3.55384 3.96363 3.55245H6.58863C6.79211 3.54792 6.9908 3.61447 7.1505 3.74063C7.31021 3.8668 7.42094 4.04469 7.46363 4.2437C7.49863 4.48286 7.54238 4.71911 7.59488 4.95245C7.69596 5.4137 7.83048 5.86698 7.99738 6.3087L6.77238 6.87745C6.66764 6.9255 6.57342 6.99377 6.49514 7.07834C6.41686 7.16291 6.35605 7.26211 6.31621 7.37024C6.27638 7.47837 6.25829 7.59331 6.26299 7.70845C6.2677 7.82359 6.2951 7.93667 6.34363 8.0412C7.60293 10.7386 9.77122 12.9069 12.4686 14.1662C12.6817 14.2537 12.9206 14.2537 13.1336 14.1662C13.3508 14.0854 13.527 13.9218 13.6236 13.7112L14.1749 12.4862C14.6272 12.648 15.0889 12.7824 15.5574 12.8887C15.7849 12.9412 16.0299 12.9849 16.2661 13.0199C16.4635 13.0644 16.6394 13.1759 16.7638 13.3354C16.8883 13.495 16.9536 13.6927 16.9486 13.8949L16.9749 16.6249Z" fill="#6A737D"/>
</svg>
