<svg width="21" height="21" viewBox="0 0 21 21" fill="none" xmlns="http://www.w3.org/2000/svg">
<g clip-path="url(#clip0)">
<path d="M14.875 18.9263H4.375C3.67881 18.9263 3.01113 18.6497 2.51884 18.1574C2.02656 17.6651 1.75 16.9975 1.75 16.3013V9.30127C1.75 9.06921 1.65781 8.84665 1.49372 8.68255C1.32962 8.51846 1.10706 8.42627 0.875 8.42627C0.642936 8.42627 0.420376 8.51846 0.256282 8.68255C0.0921872 8.84665 0 9.06921 0 9.30127L0 16.3013C0 17.4616 0.460936 18.5744 1.28141 19.3949C2.10188 20.2153 3.21468 20.6763 4.375 20.6763H14.875C15.1071 20.6763 15.3296 20.5841 15.4937 20.42C15.6578 20.2559 15.75 20.0333 15.75 19.8013C15.75 19.5692 15.6578 19.3466 15.4937 19.1826C15.3296 19.0185 15.1071 18.9263 14.875 18.9263ZM18.375 3.17627H6.125C5.42881 3.17627 4.76113 3.45283 4.26884 3.94511C3.77656 4.4374 3.5 5.10508 3.5 5.80127V14.5513C3.5 15.2475 3.77656 15.9151 4.26884 16.4074C4.76113 16.8997 5.42881 17.1763 6.125 17.1763H18.375C19.0712 17.1763 19.7389 16.8997 20.2312 16.4074C20.7234 15.9151 21 15.2475 21 14.5513V5.80127C21 5.10508 20.7234 4.4374 20.2312 3.94511C19.7389 3.45283 19.0712 3.17627 18.375 3.17627ZM18.0163 4.92627L12.8713 10.0713C12.7899 10.1533 12.6931 10.2184 12.5865 10.2628C12.4799 10.3072 12.3655 10.3301 12.25 10.3301C12.1345 10.3301 12.0201 10.3072 11.9135 10.2628C11.8069 10.2184 11.7101 10.1533 11.6287 10.0713L6.48375 4.92627H18.0163ZM19.25 14.5513C19.25 14.7833 19.1578 15.0059 18.9937 15.17C18.8296 15.3341 18.6071 15.4263 18.375 15.4263H6.125C5.89294 15.4263 5.67038 15.3341 5.50628 15.17C5.34219 15.0059 5.25 14.7833 5.25 14.5513V6.12502L10.395 11.27C10.8872 11.7616 11.5544 12.0377 12.25 12.0377C12.9456 12.0377 13.6128 11.7616 14.105 11.27L19.25 6.12502V14.5513Z" fill="#6A737D"/>
</g>
<defs>
<clipPath id="clip0">
<rect width="21" height="21" fill="white"/>
</clipPath>
</defs>
</svg>
