<svg width="21" height="21" viewBox="0 0 21 21" fill="none" xmlns="http://www.w3.org/2000/svg">
<path d="M10.5964 13.4662L7.20135 16.8612C6.79031 17.2579 6.24135 17.4796 5.6701 17.4796C5.09885 17.4796 4.54989 17.2579 4.13885 16.8612C3.93726 16.6604 3.77729 16.4218 3.66815 16.159C3.559 15.8962 3.50281 15.6145 3.50281 15.33C3.50281 15.0454 3.559 14.7637 3.66815 14.5009C3.77729 14.2381 3.93726 13.9995 4.13885 13.7987L7.53385 10.4037C7.69862 10.2389 7.79118 10.0155 7.79118 9.78246C7.79118 9.54945 7.69862 9.32598 7.53385 9.16121C7.36908 8.99644 7.14561 8.90388 6.9126 8.90388C6.67959 8.90388 6.45612 8.99644 6.29135 9.16121L2.89635 12.565C2.21241 13.3094 1.84252 14.2893 1.86392 15.3C1.88531 16.3107 2.29635 17.274 3.01118 17.9889C3.72601 18.7037 4.68937 19.1147 5.70007 19.1361C6.71077 19.1575 7.69066 18.7876 8.4351 18.1037L11.8389 14.7087C12.0036 14.5439 12.0962 14.3205 12.0962 14.0875C12.0962 13.8544 12.0036 13.631 11.8389 13.4662C11.6741 13.3014 11.4506 13.2089 11.2176 13.2089C10.9846 13.2089 10.7611 13.3014 10.5964 13.4662ZM18.1038 2.89621C17.3678 2.16472 16.3722 1.75415 15.3345 1.75415C14.2967 1.75415 13.3012 2.16472 12.5651 2.89621L9.16135 6.29121C9.07977 6.37279 9.01505 6.46965 8.9709 6.57624C8.92675 6.68284 8.90402 6.79708 8.90402 6.91246C8.90402 7.02784 8.92675 7.14208 8.9709 7.24868C9.01505 7.35527 9.07977 7.45213 9.16135 7.53371C9.24293 7.61529 9.33979 7.68001 9.44638 7.72416C9.55298 7.76831 9.66722 7.79104 9.7826 7.79104C9.89798 7.79104 10.0122 7.76832 10.1188 7.72416C10.2254 7.68001 10.3223 7.61529 10.4039 7.53371L13.7989 4.13871C14.2099 3.74201 14.7589 3.52031 15.3301 3.52031C15.9014 3.52031 16.4503 3.74201 16.8614 4.13871C17.0629 4.33951 17.2229 4.57814 17.3321 4.84091C17.4412 5.10369 17.4974 5.38542 17.4974 5.66996C17.4974 5.9545 17.4412 6.23624 17.3321 6.49901C17.2229 6.76178 17.0629 7.00041 16.8614 7.20121L13.4664 10.5962C13.3843 10.6776 13.3192 10.7743 13.2748 10.881C13.2304 10.9876 13.2075 11.1019 13.2075 11.2175C13.2075 11.333 13.2304 11.4473 13.2748 11.554C13.3192 11.6606 13.3843 11.7574 13.4664 11.8387C13.5477 11.9207 13.6445 11.9858 13.7511 12.0302C13.8577 12.0747 13.9721 12.0975 14.0876 12.0975C14.2031 12.0975 14.3175 12.0747 14.4241 12.0302C14.5307 11.9858 14.6275 11.9207 14.7088 11.8387L18.1038 8.43496C18.8353 7.69889 19.2459 6.70331 19.2459 5.66559C19.2459 4.62786 18.8353 3.63228 18.1038 2.89621ZM7.72635 13.2737C7.80811 13.3548 7.90507 13.419 8.01168 13.4625C8.11829 13.5061 8.23244 13.5281 8.3476 13.5275C8.46276 13.5281 8.57691 13.5061 8.68352 13.4625C8.79013 13.419 8.88709 13.3548 8.96885 13.2737L13.2739 8.96871C13.4386 8.80394 13.5312 8.58047 13.5312 8.34746C13.5312 8.11445 13.4386 7.89098 13.2739 7.72621C13.1091 7.56144 12.8856 7.46888 12.6526 7.46888C12.4196 7.46888 12.1961 7.56144 12.0314 7.72621L7.72635 12.0312C7.64434 12.1126 7.57924 12.2093 7.53482 12.316C7.4904 12.4226 7.46753 12.5369 7.46753 12.6525C7.46753 12.768 7.4904 12.8823 7.53482 12.989C7.57924 13.0956 7.64434 13.1924 7.72635 13.2737Z" fill="#6A737D"/>
</svg>
